<?xml version="1.0" encoding="UTF-8"?>
<svg width="100px" height="100px" viewBox="0 0 100 100" version="1.1" xmlns="http://www.w3.org/2000/svg" xmlns:xlink="http://www.w3.org/1999/xlink">
    <title>Artboard</title>
    <g id="Artboard" stroke="none" stroke-width="1" fill="none" fill-rule="evenodd">
        <path d="M8,26.3333333 C8,21.1854167 12.1854167,17 17.3333333,17 L82.6666667,17 C87.8145833,17 92,21.1854167 92,26.3333333 L92,73 C92,78.1479167 87.8145833,82.3333333 82.6666667,82.3333333 L17.3333333,82.3333333 C12.1854167,82.3333333 8,78.1479167 8,73 L8,26.3333333 Z" id="Shape" fill="#A34C87" fill-rule="nonzero"></path>
        <path d="M26.6666667,54.3333333 C29.2439955,54.3333333 31.3333333,52.2439955 31.3333333,49.6666667 C31.3333333,47.0893378 29.2439955,45 26.6666667,45 C24.0893378,45 22,47.0893378 22,49.6666667 C22,52.2439955 24.0893378,54.3333333 26.6666667,54.3333333 Z M31.3333333,35.6666667 C31.3333333,33.0893378 29.2439955,31 26.6666667,31 C24.0893378,31 22,33.0893378 22,35.6666667 C22,38.2439955 24.0893378,40.3333333 26.6666667,40.3333333 C29.2439955,40.3333333 31.3333333,38.2439955 31.3333333,35.6666667 Z M26.6666667,68.3333333 C29.2439955,68.3333333 31.3333333,66.2439955 31.3333333,63.6666667 C31.3333333,61.0893378 29.2439955,59 26.6666667,59 C24.0893378,59 22,61.0893378 22,63.6666667 C22,66.2439955 24.0893378,68.3333333 26.6666667,68.3333333 Z" id="Combined-Shape" fill="#005E7A" fill-rule="nonzero"></path>
        <path d="M40.6666667,32.1666667 C38.7270833,32.1666667 37.1666667,33.7270833 37.1666667,35.6666667 C37.1666667,37.60625 38.7270833,39.1666667 40.6666667,39.1666667 L73.3333333,39.1666667 C75.2729167,39.1666667 76.8333333,37.60625 76.8333333,35.6666667 C76.8333333,33.7270833 75.2729167,32.1666667 73.3333333,32.1666667 L40.6666667,32.1666667 Z M40.6666667,46.1666667 C38.7270833,46.1666667 37.1666667,47.7270833 37.1666667,49.6666667 C37.1666667,51.60625 38.7270833,53.1666667 40.6666667,53.1666667 L73.3333333,53.1666667 C75.2729167,53.1666667 76.8333333,51.60625 76.8333333,49.6666667 C76.8333333,47.7270833 75.2729167,46.1666667 73.3333333,46.1666667 L40.6666667,46.1666667 Z M40.6666667,60.1666667 C38.7270833,60.1666667 37.1666667,61.7270833 37.1666667,63.6666667 C37.1666667,65.60625 38.7270833,67.1666667 40.6666667,67.1666667 L73.3333333,67.1666667 C75.2729167,67.1666667 76.8333333,65.60625 76.8333333,63.6666667 C76.8333333,61.7270833 75.2729167,60.1666667 73.3333333,60.1666667 L40.6666667,60.1666667 Z" id="Combined-Shape" fill="#15D3BB" fill-rule="nonzero"></path>
    </g>
</svg>